<?xml version="1.0" encoding="utf-8"?>
<!-- Generator: Adobe Illustrator 24.3.0, SVG Export Plug-In . SVG Version: 6.00 Build 0)  -->
<svg version="1.0" id="Layer_1" xmlns="http://www.w3.org/2000/svg" xmlns:xlink="http://www.w3.org/1999/xlink" x="0px" y="0px"
	 viewBox="0 0 595.3 841.9" style="enable-background:new 0 0 595.3 841.9;" xml:space="preserve">
<style type="text/css">
	.st0{fill:#EF3736;}
	.st1{fill:#FFFFFF;}
	.st2{fill:#3F66E0;}
</style>
<g>
	<circle cx="288.7" cy="200.5" r="102.8"/>
	<g>
		
			<image style="overflow:visible;opacity:0.5;enable-background:new    ;" width="1433" height="1017" xlink:href="5F0CB2BB.png"  transform="matrix(0.2392 0 0 0.2392 140.0669 36.5721)">
		</image>
		<g>
			<path class="st0" d="M383.6,194.5c-2.8-49.9-44.2-89.5-94.8-89.5s-92,39.6-94.8,89.5H383.6z"/>
		</g>
	</g>
	<g>
		
			<image style="overflow:visible;opacity:0.5;enable-background:new    ;" width="1433" height="1017" xlink:href="5F0CB2B9.png"  transform="matrix(0.2392 0 0 0.2392 140.0669 137.132)">
		</image>
		<g>
			<path class="st1" d="M193.9,205.5c2.8,49.9,44.2,89.5,94.8,89.5s92-39.6,94.8-89.5H193.9z"/>
		</g>
	</g>
	<circle cx="288.7" cy="200.5" r="30"/>
	<circle class="st1" cx="288.7" cy="200.5" r="20.5"/>
	<g>
		
			<image style="overflow:visible;opacity:0.5;enable-background:new    ;" width="963" height="1171" xlink:href="5F0CB2BF.png"  transform="matrix(0.2391 0 0 0.2391 196.4326 240.6511)">
		</image>
		<g>
			<path class="st2" d="M288.7,307.3c-24.4,0-46.6-9.2-63.4-24.3l63.4,178l63.4-178C335.4,298.1,313.1,307.3,288.7,307.3z"/>
		</g>
	</g>
</g>
</svg>
